<?xml version="1.0" standalone="no"?>
<!DOCTYPE svg PUBLIC "-//W3C//DTD SVG 20010904//EN"
 "http://www.w3.org/TR/2001/REC-SVG-20010904/DTD/svg10.dtd">
<svg version="1.0" xmlns="http://www.w3.org/2000/svg"
 width="900.000000pt" height="720.000000pt" viewBox="0 0 900.000000 720.000000"
 preserveAspectRatio="xMidYMid meet">
<metadata>
Created by potrace 1.10, written by Peter Selinger 2001-2011
</metadata>
<g transform="translate(0.000000,720.000000) scale(0.100000,-0.100000)"
fill="#edd4d4" stroke="none">
<path d="M0 3600 l0 -3600 4500 0 4500 0 0 3600 0 3600 -4500 0 -4500 0 0
-3600z m5035 1360 l0 -135 -190 -5 -190 -5 -3 -669 c-1 -482 -5 -673 -14 -683
-8 -11 -42 -13 -152 -11 l-141 3 -5 680 -5 680 -191 3 -192 2 -6 31 c-8 40 -8
213 0 233 6 15 60 16 548 14 l541 -3 0 -135z m-2654 -1980 c9 0 37 -77 45
-123 3 -20 10 -40 15 -43 5 -3 9 -15 9 -27 0 -31 33 -121 45 -125 5 -2 13 10
16 25 4 15 14 53 22 83 9 30 23 80 31 110 28 99 30 101 110 98 l71 -3 0 -250
0 -250 -45 0 -45 0 -3 155 -3 155 -24 -50 c-13 -28 -25 -58 -25 -69 0 -23 -26
-107 -51 -163 -17 -39 -20 -41 -56 -38 -47 5 -68 29 -77 89 -4 25 -11 48 -17
51 -5 4 -9 18 -9 33 0 15 -6 39 -14 53 -7 14 -16 43 -20 63 -13 68 -19 29 -17
-118 2 -174 1 -177 -91 -167 -12 1 -10 509 2 513 8 2 88 2 131 -2z m897 -6 c9
-2 12 -17 10 -41 l-3 -38 -115 -5 -115 -5 0 -55 0 -55 60 -1 c33 -1 66 -2 73
-3 7 -1 12 -17 12 -46 l0 -44 -72 -3 -73 -3 0 -55 0 -55 104 -3 c58 -1 111 -8
118 -14 15 -12 18 -64 4 -73 -13 -8 -303 -7 -324 1 -15 5 -17 29 -17 242 0
194 3 238 15 252 13 14 35 16 162 12 82 -2 154 -5 161 -8z m545 -8 c4 -6 6
-72 5 -146 l-3 -135 -115 -5 -115 -5 0 -55 0 -55 104 -3 c59 -1 111 -8 118
-14 8 -6 13 -25 11 -42 l-3 -31 -164 -3 c-92 -1 -169 2 -174 7 -11 11 -9 273
3 285 4 4 53 8 108 7 115 -2 125 4 120 71 l-3 43 -113 5 c-122 5 -135 12 -123
59 l7 26 145 5 c153 6 180 4 192 -14z m1068 7 c14 -14 17 -482 4 -493 -13 -11
-303 -15 -327 -5 -16 7 -18 28 -18 244 0 130 4 241 8 247 4 6 13 13 20 15 26
9 304 1 313 -8z m327 -27 c10 -17 36 -73 57 -123 22 -51 43 -93 47 -93 4 0 8
51 8 113 0 75 4 117 12 125 16 16 70 16 86 0 9 -9 12 -78 12 -249 0 -262 6
-238 -63 -253 -39 -9 -59 17 -111 138 -23 55 -48 102 -54 104 -9 3 -12 -26
-12 -106 0 -124 -6 -135 -67 -130 l-38 3 -3 230 c-1 127 0 240 3 252 4 16 14
23 38 25 49 5 65 -2 85 -36z m740 28 c22 -15 22 -19 22 -248 0 -167 -3 -235
-12 -244 -28 -28 -128 -5 -128 30 0 10 -34 91 -50 120 -6 10 -10 24 -10 32 0
7 -10 26 -22 42 l-23 29 -5 -130 -5 -130 -45 0 -45 0 0 250 0 250 53 0 c51 0
54 -2 71 -35 34 -66 76 -163 86 -198 14 -49 25 -5 25 101 0 62 4 117 8 123 6
10 19 16 52 23 3 0 16 -6 28 -15z m536 3 c12 -9 17 -23 14 -47 l-3 -35 -104
-3 c-58 -1 -111 -8 -118 -14 -7 -6 -13 -30 -13 -54 0 -49 4 -52 100 -56 l55
-3 3 -37 c4 -43 -3 -46 -98 -50 l-55 -3 -3 -52 c-4 -62 -5 -62 138 -66 l95 -2
3 -36 c2 -21 -2 -39 -10 -45 -7 -5 -81 -7 -168 -4 l-155 5 0 250 0 250 135 5
c74 3 142 7 151 8 8 1 23 -4 33 -11z m544 -3 c9 -2 12 -17 10 -41 l-3 -38
-115 -5 -115 -5 0 -160 0 -160 110 -3 c72 -2 112 -7 117 -15 11 -17 10 -65 -2
-72 -7 -4 -220 -8 -312 -6 -17 1 -18 20 -18 256 l0 254 98 3 c102 3 208 0 230
-8z m543 -6 c11 -16 11 -49 1 -65 -4 -6 -30 -13 -57 -15 l-50 -3 -5 -203 c-4
-165 -8 -205 -20 -212 -8 -6 -21 -8 -28 -5 -8 3 -22 5 -33 5 -18 0 -19 9 -19
194 0 107 -3 201 -6 210 -5 12 -20 16 -60 16 l-54 0 0 44 c0 24 4 46 10 48 5
2 78 2 161 1 114 -1 154 -5 160 -15z m-5843 0 c7 -7 12 -25 12 -40 0 -29 -11
-35 -80 -40 l-35 -3 -3 -202 -2 -203 -24 -6 c-13 -3 -37 -4 -52 -2 l-29 3 -5
205 -5 205 -55 5 c-52 5 -55 7 -58 33 -7 57 -6 57 166 57 109 0 162 -4 170
-12z m297 -243 l0 -250 -45 0 -45 0 -3 240 c-1 132 0 246 3 253 3 9 19 12 47
10 l43 -3 0 -250z m2331 228 c13 -50 -3 -58 -120 -61 -105 -3 -107 -3 -117
-29 -14 -37 -9 -280 5 -293 7 -5 59 -11 116 -12 113 -3 129 -12 116 -61 l-6
-27 -163 0 c-113 0 -167 4 -175 12 -16 16 -17 450 -2 479 10 18 23 19 175 19
l165 0 6 -27z"/>
<path d="M4666 2874 c-12 -31 -7 -289 6 -302 15 -15 104 -16 113 -2 8 13 8
297 0 310 -3 6 -30 10 -60 10 -39 0 -54 -4 -59 -16z"/>
</g>
</svg>
